<?xml version="1.0" encoding="utf-8"?>
<!-- Generator: Adobe Illustrator 27.6.1, SVG Export Plug-In . SVG Version: 6.00 Build 0)  -->
<svg version="1.1" id="Layer_1" xmlns="http://www.w3.org/2000/svg" xmlns:xlink="http://www.w3.org/1999/xlink" x="0px" y="0px"
	 viewBox="0 0 500 500" style="enable-background:new 0 0 500 500;" xml:space="preserve">
<style type="text/css">
	.st0{fill:#818CF8;}
	.st1{fill:#1D2229;}
</style>
<rect class="st0" width="500" height="500"/>
<g>
	<path class="st1" d="M337.2,214.4c4.3-17.9,13.5-40.8,13.5-40.8s-1-10.9-9.3-30.1s-31.7-36.9-31.7-36.9L331,96.3
		c-18.2-2.6-55,3.2-55,3.2l19.9-14.4c0,0-58.8,0.4-97.2,17.9c-30.6,14-54,58.6-49.3,69c3.2,7,7.5,30.5,10,44.9
		c-5.9,5.8-6.2,15.3-1,25c6,11.3,0.5,26.5,18.3,28.6c0.3,4.2,0.6,8,0.9,11c2.5,23.9,38.3,50.3,43.3,58.1c5,7.8,20.4,6.2,20.4,6.2
		h7.1h3.3h7.1c0,0,15.4,1.6,20.4-6.2s40.8-34.3,43.3-58.1c0.3-3,0.6-6.8,0.9-11c17.8-2.1,12.2-17.3,18.3-28.6
		C347.6,230.7,346.3,219.7,337.2,214.4z"/>
	<g>
		<path class="st1" d="M250,403.2c26,0,49.4-12.4,66.2-32.3c-3.2-2.2-5-3.5-5-3.5c-5.1-9.8-8.5-27.9-10.5-43
			c-3.4,3.5-6.7,6.7-9.7,9.5c-4.3,4.1-8,7.7-9.1,9.5c-4.3,6.8-14.3,7.8-19.9,7.8c-1.7,0-2.9-0.1-3.3-0.1h-6.9h-3.3h-6.9
			c-0.4,0-1.7,0.1-3.3,0.1c-5.5,0-15.5-1-19.9-7.8c-1.2-1.8-4.9-5.4-9.1-9.5c-3-2.9-6.3-6.1-9.7-9.5c-2.1,15.1-5.5,33.3-10.5,43
			c0,0-1.9,1.3-5,3.5C200.6,390.8,224,403.2,250,403.2z"/>
		<path class="st1" d="M418.2,422.3L418.2,422.3c-0.6,0.7-1.2,1.3-1.9,1.9l0,0c-33.8,32.2-76.9,54.8-125,63c-4.3,0.8-8.6,1.4-13,1.9
			c-9.3,1.1-18.7,1.7-28.3,1.7c-64.4,0-123-25.4-166.2-66.6l0,0c-0.7-0.6-1.3-1.2-1.9-1.9l0,0c8.2-11.3,22.6-13.6,49.8-23.4
			c18.1-6.5,37.4-18.2,48.3-25.4c17.6,21.1,42.5,34.4,70.1,34.4s52.5-13.2,70.1-34.4c10.9,7.2,30.2,19,48.3,25.4
			C395.6,408.6,410,411,418.2,422.3z"/>
	</g>
</g>
</svg>
