<?xml version="1.0" encoding="UTF-8"?>
<svg id="Layer_1" data-name="Layer 1" xmlns="http://www.w3.org/2000/svg" viewBox="0 0 475 475">
  <defs>
    <style>
      .cls-1 {
        fill: #818cf8;
      }
    </style>
  </defs>
  <g>
    <path class="cls-1" d="m132,53c403-13,162,191,162,191,78.79,33.91,134.7,133.46,134.99,133.99,28.91-39.35,46.01-87.92,46.01-140.49C475,106.33,368.67,0,237.5,0S0,106.33,0,237.5c0,68.18,28.74,129.64,74.75,172.95,156.73-77.55,57.25-357.45,57.25-357.45Z"/>
    <path class="cls-1" d="m249,314c-14,121-98,142-98,142l-6.3.18c28.51,12.11,59.87,18.82,92.8,18.82,35.2,0,68.61-7.67,98.66-21.41,38.46-94.31-87.16-139.59-87.16-139.59Z"/>
  </g>
  <circle class="cls-1" cx="251" cy="139" r="30"/>
</svg>